<svg width="36" height="248" viewBox="0 0 36 248" fill="none" xmlns="http://www.w3.org/2000/svg">
<g clip-path="url(#clip0_7_20)">
<mask id="mask0_7_20" style="mask-type:luminance" maskUnits="userSpaceOnUse" x="0" y="0" width="36" height="248">
<path d="M2.72088 9.12816e-06L0 247.074L32.9432 247.436L35.664 0.362794L2.72088 9.12816e-06Z" fill="white"/>
</mask>
<g mask="url(#mask0_7_20)">
<path d="M17.937 246.388C17.121 247.557 15.8157 247.542 15.0257 246.356L2.13368 227.036C1.34364 225.852 1.36466 223.943 2.18061 222.774C2.99653 221.61 4.3019 221.624 5.09197 222.807L16.5517 239.983L28.3868 223.067C29.2028 221.898 30.5082 221.913 31.2982 223.099C32.0882 224.284 32.0672 226.192 31.2513 227.361L17.937 246.386L17.937 246.388ZM21.2514 0.204074L18.5637 244.265L14.4458 244.22L17.1335 0.158726L21.2514 0.204074Z" fill="black"/>
</g>
</g>
<defs>
<clipPath id="clip0_7_20">
<rect width="247.089" height="32.9452" fill="white" transform="translate(0 247.074) rotate(-89.3691)"/>
</clipPath>
</defs>
</svg>
